Input #0, lavfi, from 'yuvtestsrc=duration=60:size=1920x1080:rate=30':
  Duration: N/A, start: 0.000000, bitrate: N/A
  Stream #0:0: Video: rawvideo (444P / 0x50343434), yuv444p, 1920x1080 [SAR 1:1 DAR 16:9], 30 tbr, 30 tbn, 30 tbc
Stream mapping:
  Stream #0:0 -> #0:0 (rawvideo (native) -> h264 (h264_nvenc))
Press [q] to stop, [?] for help
Output #0, mp4, to './test_results/temp_tests_gpu/test_test_50_23/output.mp4':
  Metadata:
    encoder         : Lavf58.76.100
  Stream #0:0: Video: h264 (High 4:4:4 Predictive) (avc1 / 0x31637661), yuv444p(tv, progressive), 1280x720 [SAR 1:1 DAR 16:9], q=2-31, 30 fps, 15360 tbn
    Metadata:
      encoder         : Lavc58.134.100 h264_nvenc
    Side data:
      cpb: bitrate max/min/avg: 3000000/0/0 buffer size: 4000000 vbv_delay: N/A
frame=    1 fps=0.0 q=0.0 size=       0kB time=00:00:00.00 bitrate=N/A speed=N/A    frame=    2 fps=0.0 q=0.0 size=       0kB time=00:00:00.00 bitrate=N/A speed=   0x    frame=  102 fps= 79 q=23.0 size=       0kB time=00:00:03.30 bitrate=   0.1kbits/s speed=2.55x    frame=  191 fps=106 q=23.0 size=       0kB time=00:00:06.26 bitrate=   0.1kbits/s speed=3.49x    frame=  278 fps=121 q=23.0 size=       0kB time=00:00:09.16 bitrate=   0.0kbits/s speed=3.99x    frame=  375 fps=134 q=23.0 size=       0kB time=00:00:12.40 bitrate=   0.0kbits/s speed=4.42x    frame=  462 fps=138 q=23.0 size=       0kB time=00:00:15.30 bitrate=   0.0kbits/s speed=4.59x    frame=  538 fps=140 q=23.0 size=       0kB time=00:00:17.83 bitrate=   0.0kbits/s speed=4.64x    frame=  608 fps=140 q=23.0 size=       0kB time=00:00:20.16 bitrate=   0.0kbits/s speed=4.65x    frame=  693 fps=143 q=23.0 size=       0kB time=00:00:23.00 bitrate=   0.0kbits/s speed=4.75x    frame=  777 fps=145 q=23.0 size=       0kB time=00:00:25.80 bitrate=   0.0kbits/s speed=4.83x    frame=  846 fps=145 q=23.0 size=       0kB time=00:00:28.10 bitrate=   0.0kbits/s speed=4.81x    frame=  908 fps=143 q=23.0 size=       0kB time=00:00:30.16 bitrate=   0.0kbits/s speed=4.75x    frame=  979 fps=143 q=23.0 size=       0kB time=00:00:32.53 bitrate=   0.0kbits/s speed=4.75x    frame= 1047 fps=142 q=23.0 size=       0kB time=00:00:34.80 bitrate=   0.0kbits/s speed=4.73x    frame= 1117 fps=142 q=23.0 size=       0kB time=00:00:37.13 bitrate=   0.0kbits/s speed=4.72x    frame= 1183 fps=141 q=23.0 size=       0kB time=00:00:39.33 bitrate=   0.0kbits/s speed= 4.7x    frame= 1265 fps=143 q=23.0 size=       0kB time=00:00:42.06 bitrate=   0.0kbits/s speed=4.74x    frame= 1348 fps=144 q=23.0 size=       0kB time=00:00:44.83 bitrate=   0.0kbits/s speed=4.78x    frame= 1447 fps=147 q=23.0 size=       0kB time=00:00:48.13 bitrate=   0.0kbits/s speed=4.88x    frame= 1546 fps=149 q=23.0 size=       0kB time=00:00:51.43 bitrate=   0.0kbits/s speed=4.96x    frame= 1650 fps=152 q=23.0 size=     256kB time=00:00:54.90 bitrate=  38.2kbits/s speed=5.05x    frame= 1751 fps=154 q=23.0 size=     256kB time=00:00:58.26 bitrate=  36.0kbits/s speed=5.12x    [mp4 @ 0x5e17488ee7c0] Starting second pass: moving the moov atom to the beginning of the file
frame= 1800 fps=154 q=23.0 Lsize=     293kB time=00:00:59.96 bitrate=  40.1kbits/s speed=5.14x    
video:285kB audio:0kB subtitle:0kB other streams:0kB global headers:0kB muxing overhead: 2.801454%
